<svg fill="#000000" xmlns="http://www.w3.org/2000/svg" xmlns:xlink="http://www.w3.org/1999/xlink" version="1.1" x="0px" y="0px" viewBox="0 0 48 48" enable-background="new 0 0 48 48" xml:space="preserve"><g><g><path fill="none" stroke="#000000" stroke-width="2" stroke-miterlimit="10" d="M14.132,47H6.016C3.245,47,1,44.57,1,41.57    s2.245-5.43,5.016-5.43h5.758l18.971-24.797c0.953-1.244,2.369-1.965,3.863-1.965h7.377c2.771,0,5.016,2.43,5.016,5.43    c0,2.998-2.244,5.43-5.016,5.43h-5.02L17.994,45.035C17.041,46.279,15.625,47,14.132,47z"></path></g><ellipse fill="none" stroke="#000000" stroke-width="2" stroke-linecap="round" stroke-linejoin="round" stroke-miterlimit="10" cx="18.407" cy="4.625" rx="3.347" ry="3.623"></ellipse><path fill="none" stroke="#000000" stroke-width="2" stroke-linecap="round" stroke-linejoin="round" stroke-miterlimit="10" d="   M14.795,31.393c-0.782-0.965-1.26-2.24-1.26-3.633V16.982c0-2.986,2.192-5.43,4.872-5.43s4.872,2.443,4.872,5.43v4.119"></path><polygon fill="none" stroke="#000000" stroke-width="2" stroke-linecap="round" stroke-linejoin="round" stroke-miterlimit="10" points="   47,36.109 39.686,28.189 32.373,36.105 36.045,36.107 36.045,47 43.328,47 43.328,36.109  "></polygon></g></svg>