<svg width='200' height='200' fill="#000000" xmlns="http://www.w3.org/2000/svg" xmlns:xlink="http://www.w3.org/1999/xlink" version="1.1" x="0px" y="0px" viewBox="0 0 72 72" enable-background="new 0 0 72 72" xml:space="preserve"><g><path fill="#000000" d="M53.9,49.1H5.7c-2.9,0-5.2,2.3-5.2,5.2s2.3,5.2,5.2,5.2h48.3c2.9,0,5.2-2.3,5.2-5.2S56.8,49.1,53.9,49.1z    M8.6,57.1c-1.6,0-2.9-1.3-2.9-2.9s1.3-2.9,2.9-2.9c1.6,0,2.9,1.3,2.9,2.9S10.2,57.1,8.6,57.1z M22.7,57.1c-1.6,0-2.9-1.3-2.9-2.9   s1.3-2.9,2.9-2.9c1.6,0,2.9,1.3,2.9,2.9S24.3,57.1,22.7,57.1z M36.9,57.1c-1.6,0-2.9-1.3-2.9-2.9s1.3-2.9,2.9-2.9   c1.6,0,2.9,1.3,2.9,2.9S38.4,57.1,36.9,57.1z M51,57.1c-1.6,0-2.9-1.3-2.9-2.9s1.3-2.9,2.9-2.9c1.6,0,2.9,1.3,2.9,2.9   S52.6,57.1,51,57.1z"></path><path fill="#000000" d="M71.2,57.1c-2.6-2.1-7-7.1-6.9-17.7c0-0.4-0.3-0.7-0.7-0.7l-1.4,0c-0.4,0-0.7,0.3-0.7,0.7v1.6   c0,0.4-0.3,0.7-0.7,0.7h-5.5c-0.4,0-0.7-0.3-0.7-0.7V29.7c0-0.4-0.3-0.7-0.7-0.7h-9.3c-0.2,0-0.4-0.2-0.4-0.4v-1.8   c0-0.2,0.2-0.4,0.4-0.4h0.7c0.2,0,0.4-0.2,0.4-0.4v-6.1c0-0.2-0.2-0.4-0.4-0.4h-0.7c-0.2,0-0.4-0.2-0.4-0.4v-1   c0-0.2-0.2-0.4-0.4-0.4h-1.2c-0.2,0-0.4,0.2-0.4,0.4v1c0,0.2-0.2,0.4-0.4,0.4h-0.7c-0.2,0-0.4,0.2-0.4,0.4V26   c0,0.2,0.2,0.4,0.4,0.4h0.7c0.2,0,0.4,0.2,0.4,0.4v1.8c0,0.2-0.2,0.4-0.4,0.4h-6.7c-0.3,0-0.6-0.2-0.7-0.5L28.6,13   c-0.1-0.3-0.4-0.5-0.7-0.5H9.8c-0.4,0-0.7,0.3-0.7,0.7v31.7c0,0.4,0.3,0.7,0.7,0.7h50.9c0.4,0,0.7,0.3,0.7,0.7v11.3   c0,0.4,0.3,0.7,0.7,0.7h8.6C71.4,58.4,71.8,57.6,71.2,57.1z M28.5,29.4H13.5c-0.5,0-1-0.4-1-1V16.9c0-0.5,0.4-1,1-1h10.6   c0.4,0,0.8,0.3,0.9,0.6l4.3,11.5C29.6,28.7,29.2,29.4,28.5,29.4z"></path></g></svg>