<svg width='200' height='200' fill="#000000" xmlns="http://www.w3.org/2000/svg" xmlns:xlink="http://www.w3.org/1999/xlink" version="1.1" x="0px" y="0px" viewBox="0 0 68.21 112.625" enable-background="new 0 0 68.21 112.625" xml:space="preserve"><path d="M41.678,31.444c0.544,0.218,1.12,0.224,1.695,0.214c0.375-0.006,0.558,0.698,0.77,0.961  c0.947,1.177,2.518,1.807,3.995,1.905c1.395,0.092,3.042-0.231,4.021-1.309c0.691-0.762,0.627-1.915,1.278-2.635  c0.713-0.789,1.865-0.987,2.574-1.83c0.883-1.05,1.116-2.673,0.79-3.98c-0.286-1.143-1.11-1.911-2.04-2.565  c-0.401-0.282-0.821-0.548-1.187-0.876c-0.267-0.239,0.031-1.415,0.043-1.753c0.109-2.878-2.351-5.263-5.262-4.814  c-1.138,0.176-1.898,0.89-2.518,1.807c-0.786,1.17-1.862,0.69-3.065,0.912c-1.316,0.242-2.324,1.24-2.75,2.487  c-0.21,0.615-0.304,1.274-0.272,1.923c0.019,0.394,0.086,0.787,0.214,1.16c0.183,0.53-0.009,0.523-0.276,0.995  C38.274,26.553,38.767,30.274,41.678,31.444C42.242,31.67,39.514,30.574,41.678,31.444z M42.006,26.283  c0.084-0.337,0.842-1.277,0.839-1.33c-0.027-0.456,0.941-0.031,0.995-0.548c0.095-0.913,0.19-1.825,0.285-2.738  c-0.461-0.047-0.929-0.028-1.384,0.065c-0.065-2.074,2.469-1.12,3.804-1.785c1.132-0.564,2.368-3.472,3.738-1.653  c0.885,1.174-0.157,2.887,0.452,4.203c0.313,0.678,0.926,1.173,1.512,1.605c0.5,0.369,1.418,0.751,1.637,1.359  c0.575,1.594-1.502,2-2.366,2.796c-0.715,0.659-1.113,1.479-1.378,2.398c-0.254,0.87-1.035,0.946-1.894,0.866  c-1.867-0.175-1.951-1.852-3.457-2.574c-0.671-0.321-1.3-0.196-1.994-0.288C41.885,28.294,41.804,27.103,42.006,26.283  C42.053,26.094,41.783,27.185,42.006,26.283z"></path><path d="M59.877,54.15c-1.182-1.297-3.042-1.214-4.646-1.145c-0.869,0.035-1.712,0.022-2.578-0.052  c-0.489-0.042-0.363-1.074-0.479-1.552c-0.348-1.441-1.338-2.479-2.693-3.047c-0.801-0.337-1.679-0.234-2.512-0.11  c-0.815,0.12-0.831-0.238-1.304-0.831c-0.538-0.673-1.309-1.123-2.094-1.453c-0.184-0.725-0.261-1.468-0.384-2.204  c-0.154-0.923-0.417-1.853-1.043-2.574c-2.174-2.503-6.382-1.745-8.583,0.224c-1.377-1.837-3.874-2.975-6.139-2.329  c-0.889,0.253-1.664,0.769-2.145,1.568c-0.434,0.722-0.521,1.624-1.019,2.304c-1.029,1.407-3.461,0.339-4.928,0.999  c-2.106,0.948-2.557,4.208-1.854,6.162c-1.69-0.416-3.577-0.76-5.142,0.235c-1.402,0.892-2.406,2.22-2.469,3.92  c-0.051,1.371,0.462,2.646,0.671,3.969c0.434,2.744,0.867,5.488,1.3,8.232c1.283,8.129,2.566,16.256,3.85,24.385  c0.129,0.816,0.258,1.633,0.387,2.45c-1.012-1.339-1.982-2.595-3.736-2.923c-1.836-0.345-3.979,0.588-4.786,2.326  c-0.499,1.073,0.261,2.659-0.396,3.535c-0.881,1.175-2.091,1.658-2.211,3.323c-0.111,1.54,0.751,3.122,2.008,3.99  c0.481,0.333,0.647,0.19,0.739,0.805c0.065,0.437,0.184,0.865,0.348,1.275c0.376,0.944,0.994,1.801,1.79,2.435  c1.296,1.033,3.194,1.453,4.708,0.621c0.428-0.236,0.836-0.608,1.205-0.903c0.743,0.214,1.359,0.421,2.154,0.343  c1.188-0.116,1.976-0.527,3.154-0.527c1.406,0,2.812,0,4.217,0c4.338,0,8.676,0,13.014,0c3.927,0,7.854,0,11.781,0  c0.892,0,1.784,0,2.676,0c0.28,0,0.212-0.395,0.25-0.637c1.033-6.54,2.065-13.079,3.098-19.619  c1.102-6.974,2.202-13.948,3.304-20.922c0.349-2.207,0.696-4.413,1.045-6.619C60.735,57.909,61.332,55.75,59.877,54.15  C58.704,52.861,60.976,55.357,59.877,54.15z M41.818,48.595c0.964-0.381,1.818,1.275,2.331,1.776  c0.598,0.584,1.412,0.961,2.255,0.945c0.789-0.015,1.697-0.451,2.39,0.06c0.471,0.348,0.536,0.951,0.563,1.494  c0.035,0.671-0.804,0.826-1.282,1.291c-0.491,0.477-0.857,1.066-1.136,1.688c-0.119,0.266-0.58,1.991-0.715,1.991  c-0.833,0-1.666,0-2.498,0c-0.37,0-2.025,0.251-2.304,0c0.024-0.83-0.378-1.601-0.85-2.257c-0.262-0.365-0.555-0.708-0.856-1.041  c0.314-0.528,0.522-1.114,0.694-1.702C40.647,52.027,40.904,48.967,41.818,48.595C41.897,48.564,41.398,48.766,41.818,48.595z   M33.038,46.4c1.114-1.059,1.903-2.486,3.23-3.314c0.836-0.522,2.876-0.842,3.604,0.081c0.285,0.361,0.329,0.894,0.394,1.331  c0.052,0.35,0.101,0.701,0.16,1.05c0.102,0.594-0.415,0.611-0.812,1.015c-1.078,1.093-1.486,2.802-1.782,4.26  c-0.932-1.485-2.439-1.917-4.076-2.082C33.242,48.504,32.61,46.809,33.038,46.4C33.235,46.212,33.006,46.431,33.038,46.4z   M32.188,51.78c0.442-0.331,1.601-0.041,2.079,0.039c0.855,0.143,1.045,0.556,1.117,1.34c0.194,2.108,2.274,2.913,3.06,4.681  c-0.016-0.247,0.069-0.451,0.255-0.612c0.104,0.149,0.233,0.435,0.269,0.612c-3.715,0.053-7.541,0-11.295,0  c0.995-0.895,2.116-1.603,2.942-2.678c0.462-0.602,0.813-1.271,1.073-1.982C31.833,52.783,31.906,52.105,32.188,51.78  C32.19,51.779,32.121,51.858,32.188,51.78z M20.59,46.677c0.626-0.322,1.883,0.016,2.59-0.042c1.243-0.101,2.38-0.604,3.209-1.552  c0.491-0.562,0.835-1.217,1.086-1.916c0.118-0.328,0.2-0.927,0.527-1.132c0.839-0.527,2.101,0.166,2.728,0.71  c1.277,1.108,0.011,1.386-0.521,2.446c-0.541,1.077-0.179,2.509,0.124,3.602c0.216,0.78-0.476,0.98-0.842,1.697  c-0.307,0.599-0.451,1.254-0.703,1.874c-0.515,1.268-1.621,2.002-2.641,2.834c0.261-2.154-0.722-5.126-3.302-5.218  c-0.634-0.023-1.236,0.148-1.841,0.315C20.121,49.154,19.961,47.995,20.59,46.677C20.747,46.596,19.85,48.228,20.59,46.677z   M13.227,56.431c-0.282-1.064-0.764-2.358,0.219-3.195c1.384-1.176,3.415-0.117,4.969,0.167c0.933,0.171,1.842,0.174,2.767-0.048  c0.232-0.056,1.355-0.53,1.539-0.363c1.169,1.064,0.045,3.443,0.479,4.849c-1.698,0-3.396,0-5.095,0c-1.143,0-2.286,0-3.429,0  C13.36,57.84,13.605,57.858,13.227,56.431C12.671,54.329,13.346,56.881,13.227,56.431z M17.328,105.151  c-0.701,0-1.283-0.425-2.054-0.318c-0.96,0.132-1.417,0.707-2.154,1.216c-1.072,0.391-2.025-0.757-2.341-1.646  c-0.336-0.944,0.368-1.935-0.234-2.785c-0.686-0.97-1.721-0.153-2.301-0.972c-0.596-0.843-0.167-1.158,0.485-1.734  c0.836-0.737,1.481-1.667,1.627-2.798c0.091-0.703-0.413-1.942,0.181-2.431c1.812-1.495,2.819,1.526,4.028,2.285  c0.785,0.492,1.733,0.463,2.621,0.379c0.588-0.055,1.454-0.353,2.004-0.094c1.689,0.796,0.026,3.271,0.17,4.608  c0.065,0.604,0.978,2.031,0.724,2.542C19.59,104.396,18.446,105.151,17.328,105.151C17.326,105.151,17.531,105.151,17.328,105.151z   M50.325,104.602c-9.168,0-18.337,0-27.506,0c0.343-0.779,0.41-1.625,0.152-2.438c-0.184-0.581-0.64-1.148-0.637-1.772  c0.008-1.536,1.076-2.56,0.484-4.189c-0.578-1.587-2.003-2.89-3.724-2.999c-0.071-0.077-0.064-0.405-0.08-0.504  c-0.472-2.989-0.944-5.979-1.416-8.968c-1.179-7.463-2.357-14.925-3.535-22.388c-0.026-0.168-0.053-0.336-0.08-0.504  c13.669,0,27.339,0,41.008,0c0.747,0,1.494,0,2.241,0c-2.146,13.59-4.292,27.181-6.437,40.771  C50.64,102.607,50.482,103.604,50.325,104.602L50.325,104.602z M57.754,57.84c-2.791,0-5.581,0-8.371,0  c0.695-2.52,2.534-1.802,4.636-1.802c1.068,0,2.454-0.32,3.482,0.04C58.042,56.268,57.801,57.474,57.754,57.84  C57.754,57.84,57.928,56.491,57.754,57.84z"></path></svg>