<svg width='200' height='200' fill="#000000" xmlns:dc="http://purl.org/dc/elements/1.1/" xmlns:cc="http://creativecommons.org/ns#" xmlns:rdf="http://www.w3.org/1999/02/22-rdf-syntax-ns#" xmlns:svg="http://www.w3.org/2000/svg" xmlns="http://www.w3.org/2000/svg" xmlns:sodipodi="http://sodipodi.sourceforge.net/DTD/sodipodi-0.dtd" xmlns:inkscape="http://www.inkscape.org/namespaces/inkscape" viewBox="0 0 562.97497 600.16656" version="1.1" x="0px" y="0px"><g transform="translate(-152.31139,-143.20544)"><path style="" d="m 167.12,143.603 c -6.453,-1.676 -12.81,2.09 -14.423,8.606 -1.676,6.454 2.272,12.869 8.726,14.546 l 132.245,32.849 112.852,426.432 c 1.676,6.456 7.969,10.282 14.423,8.607 l 34.425,-9.091 c 13.841,-13.904 32.661,-22.424 53.7,-22.424 6.949,0 13.787,0.984 20.242,2.909 l 177.094,-47.154 c 6.393,-1.551 10.161,-7.97 8.484,-14.424 -1.675,-6.207 -8.09,-9.977 -14.544,-8.364 L 426.398,608.46 314.761,186.875 c -1.18,-4.281 -4.203,-7.427 -8.486,-8.604 L 167.12,143.603 Z M 434.521,285.06 351.974,307 388.095,443.729 470.764,421.911 434.521,285.06 Z M 622.525,401.91 396.337,461.67 432.46,598.521 658.646,538.64 622.525,401.91 Z M 509.189,615.127 c -35.438,0 -64.124,28.686 -64.124,64.122 0,35.376 28.686,64.123 64.124,64.123 35.437,0 64.123,-28.747 64.123,-64.123 0,-35.436 -28.748,-64.122 -64.123,-64.122 z m 0,40.001 c 13.281,0 24.12,10.779 24.12,24.121 -0.07,13.283 -10.839,24.122 -24.12,24.122 -13.344,0 -24.123,-10.839 -24.123,-24.122 0,-13.342 10.779,-24.121 24.123,-24.121 z" fill="#000000"></path></g></svg>